# xmcd CD database file
#
# Track frame offsets:
#	150
#	25846
#	53589
#	78388
#	104398
#	126580
#	153753
#	179138
#	207607
#	231634
#
# Disc length: 3512 seconds
#
# Revision: 1
# Processed by: cddbd v1.5.2PL0 Copyright (c) Steve Scherf et al.
# Submitted via: CDex 1.70beta2
#
DISCID=8d0db60a
DTITLE=Hulot - Deco
DYEAR=2005
DGENRE=Electronic
TTITLE0=Light Up
TTITLE1=Stair Way
TTITLE2=Alley
TTITLE3=Modern Living
TTITLE4=Roam
TTITLE5=White Garege
TTITLE6=Play Time
TTITLE7=Buttons
TTITLE8=Casa
TTITLE9=High Rise
EXTD=YEAR: 2005
EXTT0=
EXTT1=
EXTT2=
EXTT3=
EXTT4=
EXTT5=
EXTT6=
EXTT7=
EXTT8=
EXTT9=
PLAYORDER=
